<mxfile host="app.diagrams.net" modified="2024-03-28T17:34:04.086Z" agent="Mozilla/5.0 (Windows NT 10.0; Win64; x64) AppleWebKit/537.36 (KHTML, like Gecko) Chrome/122.0.0.0 Safari/537.36" etag="KkcgY7amzVgcn4Sn4GM0" version="24.0.6" type="device">
  <diagram name="Trang-1" id="vR_K7v93OlYOnZWCah8B">
    <mxGraphModel dx="1034" dy="446" grid="1" gridSize="10" guides="1" tooltips="1" connect="1" arrows="1" fold="1" page="1" pageScale="1" pageWidth="827" pageHeight="1169" math="0" shadow="0">
      <root>
        <mxCell id="0" />
        <mxCell id="1" parent="0" />
        <mxCell id="3OmY0LyoEJD2S5VbpKiA-1" value="User" style="shape=umlActor;verticalLabelPosition=bottom;verticalAlign=top;html=1;outlineConnect=0;" parent="1" vertex="1">
          <mxGeometry x="150" y="300" width="30" height="60" as="geometry" />
        </mxCell>
        <mxCell id="3OmY0LyoEJD2S5VbpKiA-4" value="Thêm Ví mới" style="ellipse;whiteSpace=wrap;html=1;" parent="1" vertex="1">
          <mxGeometry x="430" y="220" width="140" height="70" as="geometry" />
        </mxCell>
        <mxCell id="3OmY0LyoEJD2S5VbpKiA-5" value="Thêm Wallet Transaction" style="ellipse;whiteSpace=wrap;html=1;" parent="1" vertex="1">
          <mxGeometry x="430" y="320" width="140" height="70" as="geometry" />
        </mxCell>
        <mxCell id="3OmY0LyoEJD2S5VbpKiA-6" value="Wallet History" style="ellipse;whiteSpace=wrap;html=1;" parent="1" vertex="1">
          <mxGeometry x="430" y="430" width="140" height="70" as="geometry" />
        </mxCell>
        <mxCell id="3OmY0LyoEJD2S5VbpKiA-7" value="" style="endArrow=none;html=1;rounded=0;" parent="1" source="3OmY0LyoEJD2S5VbpKiA-1" target="3OmY0LyoEJD2S5VbpKiA-5" edge="1">
          <mxGeometry width="50" height="50" relative="1" as="geometry">
            <mxPoint x="210" y="464" as="sourcePoint" />
            <mxPoint x="364" y="320" as="targetPoint" />
          </mxGeometry>
        </mxCell>
        <mxCell id="3OmY0LyoEJD2S5VbpKiA-8" value="" style="endArrow=none;html=1;rounded=0;" parent="1" source="3OmY0LyoEJD2S5VbpKiA-1" target="3OmY0LyoEJD2S5VbpKiA-6" edge="1">
          <mxGeometry width="50" height="50" relative="1" as="geometry">
            <mxPoint x="190" y="341" as="sourcePoint" />
            <mxPoint x="441" y="360" as="targetPoint" />
          </mxGeometry>
        </mxCell>
        <mxCell id="3OmY0LyoEJD2S5VbpKiA-9" value="" style="endArrow=none;html=1;rounded=0;" parent="1" source="3OmY0LyoEJD2S5VbpKiA-1" target="3OmY0LyoEJD2S5VbpKiA-4" edge="1">
          <mxGeometry width="50" height="50" relative="1" as="geometry">
            <mxPoint x="200" y="351" as="sourcePoint" />
            <mxPoint x="451" y="370" as="targetPoint" />
          </mxGeometry>
        </mxCell>
        <mxCell id="3OmY0LyoEJD2S5VbpKiA-10" value="Cập nhật Wallet History" style="ellipse;whiteSpace=wrap;html=1;" parent="1" vertex="1">
          <mxGeometry x="630" y="320" width="140" height="70" as="geometry" />
        </mxCell>
        <mxCell id="3OmY0LyoEJD2S5VbpKiA-11" value="&amp;lt;&amp;lt;include&amp;gt;&amp;gt;" style="html=1;verticalAlign=bottom;labelBackgroundColor=none;endArrow=open;endFill=0;dashed=1;rounded=0;" parent="1" source="3OmY0LyoEJD2S5VbpKiA-4" target="3OmY0LyoEJD2S5VbpKiA-10" edge="1">
          <mxGeometry x="-0.0396" y="4" width="160" relative="1" as="geometry">
            <mxPoint x="340" y="390" as="sourcePoint" />
            <mxPoint x="500" y="390" as="targetPoint" />
            <mxPoint as="offset" />
          </mxGeometry>
        </mxCell>
        <mxCell id="3OmY0LyoEJD2S5VbpKiA-12" value="&amp;lt;&amp;lt;include&amp;gt;&amp;gt;" style="html=1;verticalAlign=bottom;labelBackgroundColor=none;endArrow=open;endFill=0;dashed=1;rounded=0;" parent="1" source="3OmY0LyoEJD2S5VbpKiA-5" target="3OmY0LyoEJD2S5VbpKiA-10" edge="1">
          <mxGeometry x="-0.0396" y="4" width="160" relative="1" as="geometry">
            <mxPoint x="559" y="290" as="sourcePoint" />
            <mxPoint x="661" y="340" as="targetPoint" />
            <mxPoint as="offset" />
          </mxGeometry>
        </mxCell>
        <mxCell id="3OmY0LyoEJD2S5VbpKiA-13" value="&amp;lt;&amp;lt;extend&amp;gt;&amp;gt;" style="html=1;verticalAlign=bottom;labelBackgroundColor=none;endArrow=open;endFill=0;dashed=1;rounded=0;" parent="1" source="3OmY0LyoEJD2S5VbpKiA-10" target="3OmY0LyoEJD2S5VbpKiA-6" edge="1">
          <mxGeometry width="160" relative="1" as="geometry">
            <mxPoint x="340" y="390" as="sourcePoint" />
            <mxPoint x="500" y="390" as="targetPoint" />
          </mxGeometry>
        </mxCell>
        <mxCell id="oXx6HA7nc2v3-skXkIQI-1" value="Biểu đồ và thống kê" style="ellipse;whiteSpace=wrap;html=1;" vertex="1" parent="1">
          <mxGeometry x="680" y="430" width="140" height="70" as="geometry" />
        </mxCell>
        <mxCell id="oXx6HA7nc2v3-skXkIQI-2" value="" style="endArrow=block;html=1;rounded=0;align=center;verticalAlign=bottom;endFill=0;labelBackgroundColor=none;endSize=8;" edge="1" parent="1" target="oXx6HA7nc2v3-skXkIQI-1">
          <mxGeometry relative="1" as="geometry">
            <mxPoint x="570" y="465" as="sourcePoint" />
            <mxPoint x="1014" y="541" as="targetPoint" />
          </mxGeometry>
        </mxCell>
        <mxCell id="oXx6HA7nc2v3-skXkIQI-3" value="" style="resizable=0;html=1;align=center;verticalAlign=top;labelBackgroundColor=none;" connectable="0" vertex="1" parent="oXx6HA7nc2v3-skXkIQI-2">
          <mxGeometry relative="1" as="geometry" />
        </mxCell>
      </root>
    </mxGraphModel>
  </diagram>
</mxfile>
